# xmcd CD database file
#
# Track frame offsets:
#	150
#	20555
#	51939
#	77855
#	112584
#	138313
#	155272
#	184237
#	212914
#	230228
#	234425
#	246121
#	264240
#	296754
#	319013
#	324337
#
# Disc length: 4533 seconds
#
# Revision: 0
# Processed by: cddbd v1.5.2PL0 Copyright (c) Steve Scherf et al.
# Submitted via: CDex 1.70beta2
#
DISCID=dd11b310
DTITLE=Oscar Peterson - The Jazz Soul Of Oscar Peterson and Oscar Peterson Plays Porgy and Bess
DYEAR=1959
DGENRE=Jazz
TTITLE0=Liza
TTITLE1=Con Alma
TTITLE2=Close Your Eyes
TTITLE3=The Maidens of Cadiz
TTITLE4=My Heart Stood Still
TTITLE5=Woody 'n' You
TTITLE6=I Got Plenty o' Nuttin'
TTITLE7=I Wants To Stay Hear (aka I Loves You Porgy)
TTITLE8=Summertime
TTITLE9=Oh Dey's So Fresh and Fine (Strawberry Woman)
TTITLE10=Oh Lawd, I'm on My Way
TTITLE11=It Ain't Necessarily So
TTITLE12=There's a Boat Leavin' Soon For New York
TTITLE13=Oh Bess, Oh Where's My Bess?
TTITLE14=Here Come de Honey Man
TTITLE15=Bess, You Is My Woman Now
EXTD=YEAR: 1959
EXTT0=
EXTT1=
EXTT2=
EXTT3=
EXTT4=
EXTT5=
EXTT6=
EXTT7=
EXTT8=
EXTT9=
EXTT10=
EXTT11=
EXTT12=
EXTT13=
EXTT14=
EXTT15=
PLAYORDER=
